<svg width="114" height="130" viewBox="0 0 114 130" fill="none" xmlns="http://www.w3.org/2000/svg">
<path d="M5.08447 40.9181C5.08447 39.115 6.05527 37.4516 7.62517 36.5647L56.2364 9.10335C59.5247 7.24572 63.6064 9.56453 63.6943 13.3402L65.0138 69.9653C65.0572 71.8301 64.0591 73.564 62.4247 74.4629L12.4941 101.925C9.1618 103.757 5.08447 101.347 5.08447 97.5436V40.9181Z" fill="#D9D9D9"/>
<path d="M0 35.9181C0 34.115 0.970802 32.4516 2.5407 31.5647L51.1519 4.10335C54.4402 2.24572 58.5219 4.56453 58.6099 8.34024L59.9293 64.9653C59.9727 66.8301 58.9746 68.564 57.3402 69.4629L7.40959 96.9247C4.07733 98.7575 0 96.3467 0 92.5436V35.9181Z" fill="#D9D9D9" fill-opacity="0.5"/>
<path d="M28 52.9181C28 51.115 28.9708 49.4516 30.5407 48.5647L79.1519 21.1033C82.4402 19.2457 86.5219 21.5645 86.6099 25.3402L87.9293 81.9653C87.9727 83.8301 86.9746 85.564 85.3402 86.4629L35.4096 113.925C32.0773 115.757 28 113.347 28 109.544V52.9181Z" fill="#32D583"/>
<path d="M23 47.9181C23 46.115 23.9708 44.4516 25.5407 43.5647L74.1519 16.1033C77.4402 14.2457 81.5219 16.5645 81.6099 20.3402L82.9293 76.9653C82.9727 78.8301 81.9746 80.564 80.3402 81.4629L30.4096 108.925C27.0773 110.757 23 108.347 23 104.544V47.9181Z" fill="#32D583" fill-opacity="0.5"/>
<path d="M53.9155 64.9181C53.9155 63.115 54.8863 61.4516 56.4562 60.5647L105.067 33.1033C108.356 31.2457 112.437 33.5645 112.525 37.3402L113.845 93.9653C113.888 95.8301 112.89 97.564 111.256 98.4629L61.3251 125.925C57.9929 127.757 53.9155 125.347 53.9155 121.544V64.9181Z" fill="#D9D9D9"/>
<path d="M48 60.9181C48 59.115 48.9708 57.4516 50.5407 56.5647L99.1519 29.1033C102.44 27.2457 106.522 29.5645 106.61 33.3402L107.929 89.9653C107.973 91.8301 106.975 93.564 105.34 94.4629L55.4096 121.925C52.0773 123.757 48 121.347 48 117.544V60.9181Z" fill="#D9D9D9" fill-opacity="0.5"/>
</svg>
